<mxfile host="app.diagrams.net" modified="2023-07-13T17:12:24.345Z" agent="Mozilla/5.0 (Windows NT 10.0; Win64; x64) AppleWebKit/537.36 (KHTML, like Gecko) Chrome/114.0.0.0 Safari/537.36" etag="jyIka8qq1f5hUtjy78Ic" version="21.3.7" type="github">
  <diagram name="PÃ¡gina-1" id="ssbT1tzwtEuVs6stnHwx">
    <mxGraphModel dx="1232" dy="1114" grid="1" gridSize="10" guides="1" tooltips="1" connect="1" arrows="1" fold="1" page="1" pageScale="1" pageWidth="1169" pageHeight="827" math="0" shadow="0">
      <root>
        <mxCell id="0" />
        <mxCell id="1" parent="0" />
        <mxCell id="XXjwkp2UR2gFMSGB97_C-7" style="edgeStyle=orthogonalEdgeStyle;rounded=0;orthogonalLoop=1;jettySize=auto;html=1;entryX=0.5;entryY=0;entryDx=0;entryDy=0;" edge="1" parent="1" source="XXjwkp2UR2gFMSGB97_C-1" target="XXjwkp2UR2gFMSGB97_C-6">
          <mxGeometry relative="1" as="geometry" />
        </mxCell>
        <mxCell id="XXjwkp2UR2gFMSGB97_C-1" value="&lt;b&gt;BE_ObtenerTokenAwsBatch&lt;/b&gt;&lt;br&gt;" style="shape=note;whiteSpace=wrap;html=1;backgroundOutline=1;darkOpacity=0.05;" vertex="1" parent="1">
          <mxGeometry x="330" y="100" width="180" height="160" as="geometry" />
        </mxCell>
        <mxCell id="XXjwkp2UR2gFMSGB97_C-3" style="edgeStyle=orthogonalEdgeStyle;rounded=0;orthogonalLoop=1;jettySize=auto;html=1;entryX=-0.028;entryY=0.444;entryDx=0;entryDy=0;entryPerimeter=0;exitX=0;exitY=0.5;exitDx=0;exitDy=0;exitPerimeter=0;" edge="1" parent="1" source="XXjwkp2UR2gFMSGB97_C-2" target="XXjwkp2UR2gFMSGB97_C-1">
          <mxGeometry relative="1" as="geometry">
            <Array as="points">
              <mxPoint x="150" y="535" />
              <mxPoint x="150" y="171" />
            </Array>
          </mxGeometry>
        </mxCell>
        <mxCell id="XXjwkp2UR2gFMSGB97_C-11" value="Reprocesar en 2 horas" style="edgeLabel;html=1;align=center;verticalAlign=middle;resizable=0;points=[];" vertex="1" connectable="0" parent="XXjwkp2UR2gFMSGB97_C-3">
          <mxGeometry x="0.0236" relative="1" as="geometry">
            <mxPoint as="offset" />
          </mxGeometry>
        </mxCell>
        <mxCell id="XXjwkp2UR2gFMSGB97_C-2" value="Custom Metadata&lt;br&gt;Bootbech" style="shape=cylinder3;whiteSpace=wrap;html=1;boundedLbl=1;backgroundOutline=1;size=15;" vertex="1" parent="1">
          <mxGeometry x="375" y="480" width="90" height="110" as="geometry" />
        </mxCell>
        <mxCell id="XXjwkp2UR2gFMSGB97_C-8" style="edgeStyle=orthogonalEdgeStyle;rounded=0;orthogonalLoop=1;jettySize=auto;html=1;entryX=1;entryY=0.5;entryDx=0;entryDy=0;" edge="1" parent="1" source="XXjwkp2UR2gFMSGB97_C-4" target="XXjwkp2UR2gFMSGB97_C-6">
          <mxGeometry relative="1" as="geometry" />
        </mxCell>
        <mxCell id="XXjwkp2UR2gFMSGB97_C-4" value="Token&lt;br&gt;Genesys Cloud" style="ellipse;shape=cloud;whiteSpace=wrap;html=1;" vertex="1" parent="1">
          <mxGeometry x="940" y="250" width="150" height="80" as="geometry" />
        </mxCell>
        <mxCell id="XXjwkp2UR2gFMSGB97_C-9" style="edgeStyle=orthogonalEdgeStyle;rounded=0;orthogonalLoop=1;jettySize=auto;html=1;entryX=1;entryY=0.5;entryDx=0;entryDy=0;" edge="1" parent="1" source="XXjwkp2UR2gFMSGB97_C-5" target="XXjwkp2UR2gFMSGB97_C-6">
          <mxGeometry relative="1" as="geometry" />
        </mxCell>
        <mxCell id="XXjwkp2UR2gFMSGB97_C-5" value="Token&lt;br&gt;AWS Integration" style="ellipse;shape=cloud;whiteSpace=wrap;html=1;" vertex="1" parent="1">
          <mxGeometry x="940" y="360" width="150" height="80" as="geometry" />
        </mxCell>
        <mxCell id="XXjwkp2UR2gFMSGB97_C-10" style="edgeStyle=orthogonalEdgeStyle;rounded=0;orthogonalLoop=1;jettySize=auto;html=1;entryX=1;entryY=0.5;entryDx=0;entryDy=0;entryPerimeter=0;exitX=0.5;exitY=1;exitDx=0;exitDy=0;" edge="1" parent="1" source="XXjwkp2UR2gFMSGB97_C-6" target="XXjwkp2UR2gFMSGB97_C-2">
          <mxGeometry relative="1" as="geometry" />
        </mxCell>
        <mxCell id="XXjwkp2UR2gFMSGB97_C-6" value="Obtiene Tokens" style="shape=process;whiteSpace=wrap;html=1;backgroundOutline=1;" vertex="1" parent="1">
          <mxGeometry x="670" y="310" width="120" height="60" as="geometry" />
        </mxCell>
      </root>
    </mxGraphModel>
  </diagram>
</mxfile>
